# xmcd
#
# Track frame offsets:
#	150
#	21549
#	34599
#	50288
#	68696
#	84069
#	96671
#	113191
#	125938
#	142954
#	157766
#	171440
#	190833
#	208986
#
# Disc length: 3001 seconds
#
# Revision: 0
# Processed by: cddbd v1.4PL0 Copyright (c) Steve Scherf et al.
# Submitted via: EasyCDDAExtractor 4.6.0.1
#
DISCID=c40bb70e
DTITLE=Bailão do Marco Brasil
DYEAR=2001
DGENRE=Country
TTITLE0=Abertura/Brasileirinha Grupo Tradição
TTITLE1=A Pinga/Piseiro - Ataide e Alexandre
TTITLE2=Ja Sai Com Sua Tia/Maluquinho Por Muie - Denis e Fabiano
TTITLE3=O Bicho Que Mata O Homem/Paixao de Peao - Rick e Renner
TTITLE4=So Beijo a Boca do Litro/Abre a Janela - Guilherme e Gustavo
TTITLE5=Bagaço da Cana/Pega Pega-Teodoro e Sampaio
TTITLE6=Jogo de Truco/A Gata do BMW - Cezar e Paulinho
TTITLE7=Pra Quem Pensa Que Sou Casado/Dia de Folga-Lucas e Luan
TTITLE8=Lá em Casa Quem Manda Sou Eu/Cunhado Boa - Marcelo costa
TTITLE9=No Bico de Uma  Cegonha/Dengo-Daniel
TTITLE10=Trem Blindado/Cospe Grosso-Gian e Giovani
TTITLE11=Você Pensou Que a Saudade/Você Virou Saudade-Emilio e Eduardo
TTITLE12=Me Lambe Sua Vaca/Eutrepsemia-Jad e Jefferson
TTITLE13=Minha Historia/Devo e Não Nego-Marco Brasil
EXTD=
EXTT0=
EXTT1=
EXTT2=
EXTT3=
EXTT4=
EXTT5=
EXTT6=
EXTT7=
EXTT8=
EXTT9=
EXTT10=
EXTT11=
EXTT12=
EXTT13=
PLAYORDER=
